<?xml version="1.0" encoding="UTF-8" standalone="no"?>
<!-- Created with Inkscape (http://www.inkscape.org/) -->

<svg
   xmlns:dc="http://purl.org/dc/elements/1.1/"
   xmlns:cc="http://creativecommons.org/ns#"
   xmlns:rdf="http://www.w3.org/1999/02/22-rdf-syntax-ns#"
   xmlns:svg="http://www.w3.org/2000/svg"
   xmlns="http://www.w3.org/2000/svg"
   xmlns:sodipodi="http://sodipodi.sourceforge.net/DTD/sodipodi-0.dtd"
   xmlns:inkscape="http://www.inkscape.org/namespaces/inkscape"
   id="svg4545"
   version="1.1"
   inkscape:version="0.91 r13725"
   xml:space="preserve"
   width="1095.1691"
   height="388.31726"
   viewBox="0 0 1095.1691 388.31726"
   sodipodi:docname="kimbrglezphotography.svg"><metadata
     id="metadata4551"><rdf:RDF><cc:Work
         rdf:about=""><dc:format>image/svg+xml</dc:format><dc:type
           rdf:resource="http://purl.org/dc/dcmitype/StillImage" /><dc:title></dc:title></cc:Work></rdf:RDF></metadata><defs
     id="defs4549" /><sodipodi:namedview
     pagecolor="#ffffff"
     bordercolor="#666666"
     borderopacity="1"
     objecttolerance="10"
     gridtolerance="10"
     guidetolerance="10"
     inkscape:pageopacity="0"
     inkscape:pageshadow="2"
     inkscape:window-width="1362"
     inkscape:window-height="728"
     id="namedview4547"
     showgrid="false"
     fit-margin-top="0"
     fit-margin-left="0"
     fit-margin-right="0"
     fit-margin-bottom="0"
     inkscape:zoom="1.0642839"
     inkscape:cx="548.4007"
     inkscape:cy="153.93613"
     inkscape:window-x="0"
     inkscape:window-y="38"
     inkscape:window-maximized="0"
     inkscape:current-layer="g4553" /><g
     id="g4553"
     inkscape:groupmode="layer"
     inkscape:label="ink_ext_XXXXXX"
     transform="matrix(1.25,0,0,-1.25,-13.94928,468.76864)"><g
       id="g4555"
       transform="scale(0.1,0.1)"><g
         id="g4557"
         transform="scale(10,10)"><text
           transform="matrix(1,0,0,-1,172.216,64.7859)"
           style="font-variant:normal;font-weight:normal;font-size:30px;font-family:Baskerville;-inkscape-font-specification:Baskerville;writing-mode:lr-tb;fill:#231f20;fill-opacity:1;fill-rule:nonzero;stroke:none"
           id="text4559"><tspan
             x="0 29.4375 46.057499 79.874908 93.374908 117.81732 143.16792 172.29791 196.41792 221.16792 246.22554 259.72552 282.60052 312.66794 342.51566 368.07135 398.75397 427.88397 455.75397 482.07135 504.94635 535.01373"
             y="0"
             sodipodi:role="line"
             id="tspan4561">KIM BRGLEZ PHOTOGRAPHY</tspan></text>
</g><path
         d="m 119.199,1917.7 c 204.621,184.33 523.02,146.24 753.758,33.93 264.743,-128.86 475.043,-343.81 735.723,-479.44 242.46,-126.15 523.54,-186.88 795.94,-151.67 247.71,32.02 473.23,148.13 650.45,322.94 174.02,171.65 298.71,388.98 382.36,617.37 95.18,259.85 146.86,548.31 125.24,825.06 -15.84,202.69 -81.76,556.6 -332.42,594.68 -116.62,17.71 -217.86,-54.59 -286.43,-142.29 -83.77,-107.14 -123.58,-241.85 -142.53,-374.86 -42.49,-298.37 27.67,-600.16 109.83,-885.65 86.29,-299.87 196.63,-592.82 329.11,-875.34 34.21,-72.96 69.78,-145.33 107.22,-216.7 10.84,-20.67 45.52,-11.4 44.38,12.03 -14.93,306.75 60.24,624.69 224.7,885.75 38.64,61.34 87.3,120.74 155.73,149.49 81.9,34.42 169.31,14.15 216.79,-63.3 78.5,-128.06 54.68,-305.49 -13.36,-431.97 -78.62,-146.15 -220.44,-244.39 -376.87,-291.98 -23.61,-7.19 -13.81,-41.83 10.15,-36.79 119.95,25.19 228.99,-43.69 326.64,-104.34 89.47,-55.57 176.92,-108.43 281.82,-128.55 198.54,-38.09 405.23,28.96 569.83,139.35 189.05,126.79 318.13,318.89 407.6,525.16 97.07,223.81 160.45,465.21 216.59,702.1 58.79,248.06 95.23,506.26 61.84,760.86 -23.59,179.85 -111.14,404.24 -313.2,441.96 -199.91,37.32 -312.16,-157.32 -352.52,-323.3 -57.83,-237.79 -28.13,-499.19 3.41,-738.84 73.07,-555.08 270.33,-1077.23 528.35,-1571.37 10.09,-19.33 38.83,-2.3 29.15,17.03 -206.96,413.35 -376.77,848.24 -467.95,1302.58 -46.22,230.3 -75.11,466.63 -76.87,701.72 -0.86,115.91 8.08,232.26 43.89,343.14 31.55,97.69 85,201.75 190.82,233.1 221.68,65.67 353.28,-203.76 382.17,-377.56 40.54,-243.9 8.06,-497.85 -46.37,-736.78 -51.04,-224.04 -111.88,-451.01 -195.34,-665.34 -79.23,-203.48 -191.65,-402.11 -364.26,-540.6 -178.38,-143.12 -421.86,-225.2 -648.46,-164.55 -201.63,53.96 -363.94,263.57 -587.29,221.02 3.38,-12.27 6.76,-24.53 10.15,-36.79 151.94,43.93 291.78,131.95 381.34,264.39 90,133.11 122.32,315.12 62.93,467.05 -25.44,65.06 -70.71,123.46 -139.79,144.39 -70.07,21.22 -149.18,1.18 -208.13,-39.87 -133.88,-93.23 -207.6,-275.43 -261.78,-423.09 -73.12,-199.29 -105.37,-412.09 -99.34,-624.07 14.79,4 29.59,8.01 44.38,12.02 -139.24,271.62 -260.13,551.33 -357.19,840.85 -93.65,279.36 -182.28,573.42 -195.77,869.53 -6.58,144.49 6.35,290.6 52.73,428.23 40.49,120.16 118.94,254.82 249.41,291.85 135.31,38.4 241.61,-66.22 298.19,-177.67 65.09,-128.21 90.76,-279.34 98.1,-421.57 25.33,-491.2 -155.46,-1046.71 -516.58,-1390.31 -185.92,-176.91 -423.61,-286.98 -680.36,-305.53 -274.26,-19.81 -550.59,55.42 -786.08,194.8 -254.88,150.86 -472,372.74 -754.327,474.8 -226.656,81.94 -498.801,83.04 -683.734,-90.83 -4.153,-3.91 2.035,-10.01 6.23,-6.23 l 0,0"
         style="fill:#231f20;fill-opacity:1;fill-rule:nonzero;stroke:none"
         id="path4563"
         inkscape:connector-curvature="0" /><path
         d="m 5364.17,1123.69 c -20.55,215.28 7.22,433.96 88.98,634.77 39.24,96.37 91.23,188.21 153.65,271.46 67.34,89.8 152.54,185.02 263.48,218.42 114.49,34.48 225.98,-28.47 283.72,-127.52 62.38,-107 56.63,-240.66 30.74,-357.55 -46.3,-209.06 -164.85,-398.6 -330.95,-533.41 -40.84,-33.14 -144,-101.81 -149.71,0.33 -3.55,63.56 33.23,122.03 77.71,164.17 89.26,84.57 217.74,116.83 336.43,131.64 258.15,32.2 518.01,-9.21 770.22,-63.59 448.71,-96.74 920.14,-241.12 1375.86,-99.2 208.97,65.08 398.83,190.89 510.85,382.34 103.85,177.48 131.5,395.8 51.26,587.82 -2.7,6.45 -13.38,3.67 -10.67,-2.95 87.24,-213.54 25.34,-458.72 -109.98,-638.4 -147.79,-196.24 -384.35,-301.7 -621.57,-340.78 -556.72,-91.71 -1092.48,168.85 -1641.04,211.1 -224.89,17.32 -534.79,21.1 -702.15,-159.65 -51.78,-55.92 -110.52,-170.53 -51.55,-241.45 60.95,-73.31 168.01,17.65 217.46,59.66 170,144.42 290.27,351.02 328.58,571.02 34.47,197.99 -21.54,473.01 -259.57,508.5 -242.61,36.17 -431.89,-253.08 -522.28,-438.52 -111.55,-228.84 -153.57,-489.47 -104.93,-740.3 1.66,-8.61 16.31,-6.79 15.46,2.09 l 0,0"
         style="fill:#231f20;fill-opacity:1;fill-rule:nonzero;stroke:none"
         id="path4565"
         inkscape:connector-curvature="0" /></g></g></svg>